<?xml version="1.0" encoding="UTF-8"?>
<!DOCTYPE svg PUBLIC "-//W3C//DTD SVG 1.1//EN" "http://www.w3.org/Graphics/SVG/1.1/DTD/svg11.dtd">
<!-- Creator: CorelDRAW X8 -->
<svg xmlns="http://www.w3.org/2000/svg" xml:space="preserve" width="1.26372in" height="1.55333in" version="1.1" style="shape-rendering:geometricPrecision; text-rendering:geometricPrecision; image-rendering:optimizeQuality; fill-rule:evenodd; clip-rule:evenodd"
viewBox="0 0 248 304"
 xmlns:xlink="http://www.w3.org/1999/xlink">
 <defs>
  <style type="text/css">
   <![CDATA[
    .fil1 {fill:#12549C}
    .fil0 {fill:#8CC545}
   ]]>
  </style>
 </defs>
 <g id="Layer_x0020_1">
  <metadata id="CorelCorpID_0Corel-Layer"/>
  <g id="_2517928402672">
   <path class="fil0" d="M166 112c2,-23 -13,-53 -33,-67 -6,-4 -16,-10 -19,-14 24,1 44,25 51,43 1,5 2,7 4,12l5 12c0,0 0,-1 0,-1l2 -22c-1,-57 -44,-80 -102,-74 -2,30 -1,56 23,76 23,20 11,10 30,22 7,4 31,12 39,13z"/>
   <path class="fil1" d="M101 301c-2,-4 -5,-8 -8,-12 -45,-76 94,-108 89,-181 -2,2 0,0 -2,3 -5,6 -5,14 -22,32 -16,16 -53,47 -76,33 -14,-8 -11,-28 -12,-46 -3,3 -3,6 -5,11 -9,27 -17,63 -13,90 3,17 9,29 18,42 5,7 22,26 31,28z"/>
   <path class="fil1" d="M117 304c30,2 52,-16 50,-47 0,-23 -22,-58 -34,-65 -4,2 -4,2 -6,6 5,13 21,25 22,52 1,34 -28,33 -35,38 0,6 1,12 3,16z"/>
   <path class="fil1" d="M88 298c-1,-4 -13,-14 -17,-18 -4,-6 -12,-9 -19,-14 -25,-18 -54,-57 -40,-87 3,-7 9,-12 16,-16 9,-4 25,-3 29,-5l0 -4c-15,-8 -81,6 -47,77 13,27 51,62 78,67z"/>
   <path class="fil0" d="M188 103l10 -13c4,-10 -3,-1 7,-11 2,-2 1,-2 4,-3 -2,9 -14,24 -14,33 12,-1 27,-14 34,-20 5,-5 8,-10 11,-16 2,-3 10,-16 7,-19 -3,-3 -29,-3 -43,10 -8,8 -17,24 -16,39z"/>
   <path class="fil0" d="M112 283c3,-9 7,-20 8,-30 1,-14 -4,-31 -11,-37 -10,6 -19,24 -21,37 -2,17 4,35 14,42l1 -3c0,-5 -5,-16 -2,-25 4,7 0,22 8,26l3 -10z"/>
   <path class="fil1" d="M99 129c-24,8 -20,44 6,37 22,-6 23,-46 -6,-37z"/>
  </g>
 </g>
</svg>
